<svg id="Layer_1" enable-background="new 0 0 480.017 480.017" height="512" viewBox="0 0 480.017 480.017" width="512" xmlns="http://www.w3.org/2000/svg"><g><path d="m299.449 387.734c7.17 0 10.714-8.783 5.554-13.758-6.54-6.307-14.214-11.012-22.812-13.986l-43.118-14.837c-18.554-6.384-31.051-23.837-31.128-43.451.068-5.808-5.907-9.734-11.195-7.428-59.648 24.645-125.734-19.385-125.734-84.141v-40.341c16.832-6.314 30.599-18.476 39.205-34.534 41.803 29.125 91.85 42.34 142.795 37.694v37.181c0 22.823-8.485 44.653-23.894 61.471-2.985 3.258-2.764 8.318.494 11.303 3.257 2.984 8.317 2.764 11.303-.494 18.119-19.775 28.097-45.444 28.097-72.279v-46.125c0-4.827-4.254-8.569-9.052-7.931-53.131 7.049-105.72-6.951-148.081-39.419-4.259-3.264-10.457-1.485-12.35 3.52-6.769 17.901-20.875 31.071-38.703 36.134-3.44.977-5.814 4.119-5.814 7.696v33.047c-5.305-2.813-8.958-8.358-8.953-14.933v-99.178c.006-9.301 7.606-16.864 16.906-16.864h2.172c3.33 0 6.312-2.062 7.486-5.177 10.755-28.533 37.908-44.897 74.497-44.897h61.483c38.131 0 69.366 30.818 69.343 69.405v59.59c-.003 4.418 3.56 8.003 7.979 8.005 4.416.001 8.018-3.579 8.021-7.995v-59.59c.029-47.401-38.326-85.415-85.343-85.415h-61.483c-37.704 0-71.841 15.895-87.389 50.231-16.605 1.63-29.661 15.669-29.672 32.698v99.176c-.011 15.784 10.899 28.533 25.034 31.962 2.53 69.491 70.445 118.868 137.852 98.524 2.633 14.528 10.352 27.551 21.561 36.822l-23.349 121.073c-.951 4.93 2.827 9.517 7.864 9.517 3.757 0 7.108-2.66 7.847-6.487l22.201-115.119c3.032 1.332 3.122 1.303 19.576 6.965l5.355 20.121-10.234 1.616c-4.162.657-7.101 4.43-6.72 8.626l6.995 77c.401 4.418 4.31 7.643 8.691 7.244 4.4-.4 7.643-4.291 7.244-8.691l-6.317-69.542 11.603-1.833c4.689-.74 7.702-5.38 6.483-9.959l-4.873-18.31c10.906 3.753 18.446 5.583 27.022 13.853 1.551 1.496 3.552 2.24 5.551 2.24z"/><path d="m145.017 199.008v-14c0-4.418-3.582-8-8-8s-8 3.582-8 8v14c0 4.418 3.582 8 8 8s8-3.582 8-8z"/><path d="m195.017 199.008v-14c0-4.418-3.582-8-8-8s-8 3.582-8 8v14c0 4.418 3.582 8 8 8s8-3.582 8-8z"/><path d="m186.765 256.756c3.125-3.125 3.124-8.189 0-11.314-3.124-3.124-8.189-3.124-11.314 0-7.424 7.425-19.444 7.427-26.869 0-3.125-3.124-8.189-3.124-11.314 0-3.124 3.125-3.125 8.189 0 11.314 13.677 13.678 35.818 13.68 49.497 0z"/><path d="m174.427 374.425c-20.448 1.939-43.725-.84-62.037-10.141l-2.87-14.883c5.144-4.25 9.619-9.315 13.181-15.036 2.335-3.751 1.188-8.685-2.563-11.02-3.752-2.336-8.685-1.188-11.02 2.563-5.586 8.971-14.166 15.806-24.159 19.244l-43.117 14.837c-25.006 8.65-41.825 32.223-41.842 58.69v53.323c-.003 4.418 3.562 8.004 7.981 8.005 4.416.001 8.016-3.579 8.019-7.995v-53.323c.013-19.667 12.526-37.183 31.116-43.594l10.042-3.456-4.873 18.31c-1.221 4.588 1.803 9.221 6.483 9.959l11.603 1.833-6.317 69.542c-.424 4.673 3.25 8.724 7.977 8.724 4.091 0 7.581-3.123 7.958-7.277l6.995-77c.381-4.196-2.558-7.969-6.72-8.626l-10.234-1.616 5.355-20.121c14.542-5.004 16.225-5.491 19.575-6.967l22.201 115.121c.839 4.348 5.042 7.176 9.37 6.341 4.338-.837 7.177-5.032 6.341-9.371l-16.822-87.227c18.732 6.874 40.107 8.964 59.887 7.088 4.399-.417 7.626-4.321 7.209-8.719s-4.315-7.629-8.719-7.208z"/><path d="m450.169 143.689c-3.502 2.693-4.158 7.716-1.465 11.219 2.693 3.502 7.716 4.159 11.219 1.465 12.77-9.82 20.094-24.682 20.094-40.773v-4.592c0-13.234-10.767-24-24-24h-4.592c-28.347 0-51.408 23.062-51.408 51.408 0 4.612-.182 7.154.86 10.95-3.842 4.33-7.463 8.868-10.86 13.604v-24.961c0-4.418-3.582-8-8-8s-8 3.582-8 8v105.961c-3.608-5.031-7.471-9.839-11.582-14.412 1.846-4.834 1.582-8.144 1.582-13.142 0-28.347-23.062-51.408-51.408-51.408h-4.592c-13.233 0-24 10.766-24 24v4.592c0 18.607 10.099 35.812 26.355 44.899 3.865 2.16 8.735.77 10.886-3.08 2.156-3.856.777-8.73-3.08-10.886-11.203-6.262-18.162-18.115-18.162-30.933v-4.592c0-4.411 3.589-8 8-8h4.592c19.164 0 34.811 15.307 35.381 34.336-3.722-3.238-7.239-6.041-11.005-8.795-3.567-2.608-8.572-1.831-11.18 1.735s-1.831 8.572 1.735 11.18c19.577 14.315 35.277 33.033 46.478 55.437v56.147c-6.065-8.741-12.875-16.83-20.396-24.184-3.158-3.087-8.223-3.033-11.313.127-3.089 3.159-3.032 8.224.127 11.313 12.782 12.498 23.334 27.354 31.363 44.154.314.657.218-1.637.218 16.221-3.741 3.592-6.954 7.84-9.595 12.731-24.719-11.99-52.208 2.179-59.263 26.768-11.892 1.417-21.143 11.564-21.143 23.831v14c0 13.234 10.767 24 24 24h148c13.233 0 24-10.766 24-24v-14c0-11.78-8.531-21.604-19.739-23.621.607-21.998-13.906-39.078-30.256-46.936-3.983-1.915-8.762-.237-10.676 3.745s-.237 8.762 3.745 10.676c11.988 5.761 24.526 19.29 20.41 38.456-1.07 4.982 2.734 9.68 7.822 9.68h4.695c4.411 0 8 3.589 8 8v14c0 4.411-3.589 8-8 8h-148c-4.411 0-8-3.589-8-8v-14c0-4.411 3.589-8 8-8h3.706c4.06 0 7.477-3.042 7.946-7.074 2.294-19.694 24.886-31.847 43.478-17.58 4.297 3.3 10.582 1.456 12.406-3.66 2.631-7.381 6.499-13.172 11.495-17.213 1.596-1.277 2.699-3.226 2.925-5.385.066-.642.044-3.585.044-68.196 10.602-21.206 24.843-38.354 41.524-51.655 3.455-2.754 4.023-7.788 1.269-11.242-2.754-3.455-7.787-4.022-11.242-1.269-2.281 1.818-3.797 3.109-5.524 4.609.57-19.028 16.217-34.335 35.381-34.335h4.592c4.411 0 8 3.589 8 8v4.592c0 10.762-4.811 20.814-13.199 27.579-3.439 2.773-3.979 7.81-1.205 11.249 2.773 3.439 7.811 3.979 11.249 1.205 12.173-9.817 19.155-24.409 19.155-40.033v-4.592c0-13.233-10.767-24-24-24h-4.592c-28.347 0-51.408 23.062-51.408 51.408 0 4.997-.263 8.309 1.582 13.141-4.111 4.573-7.973 9.38-11.582 14.412v-90.07c10.652-21.306 25.083-38.699 42.123-52.129 3.469-2.736 4.064-7.766 1.329-11.236-2.736-3.469-7.765-4.064-11.235-1.329-2.204 1.738-3.97 3.212-5.948 4.922 2.124-17.508 17.067-31.121 35.139-31.121h4.592c4.411 0 8 3.589 8 8v4.592c.001 11.084-5.047 21.323-13.847 28.09z"/><path d="m335.017 16.008h116c4.418 0 8-3.582 8-8s-3.582-8-8-8h-116c-4.418 0-8 3.582-8 8s3.581 8 8 8z"/><path d="m335.017 66.008h56c4.418 0 8-3.582 8-8s-3.582-8-8-8h-56c-4.418 0-8 3.582-8 8s3.581 8 8 8z"/></g></svg>