<svg id="Capa_1" enable-background="new 0 0 512 512" height="512" viewBox="0 0 512 512" width="512" xmlns="http://www.w3.org/2000/svg"><g><g><path d="m373.019 204.045c14.64 17.495 37.044 22.136 56.765 10.117 11.731-7.151 23.942-20.216 31.869-34.096 10.021-17.549 11.688-33.532 4.694-45.007-16.599-27.234-64.97-17.211-87.063-3.745-20.008 12.195-25.972 34.437-16.763 55.706l-26.782 16.443c.133-2.793.209-5.636.209-8.546 0-12.762-1.83-25.169-5.44-36.876-1.627-5.278-7.223-8.239-12.502-6.609-5.278 1.627-8.237 7.225-6.609 12.502 3.021 9.797 4.552 20.221 4.552 30.983 0 24.592-5.823 48.86-19.292 69.614-13.568 20.907-33.229 36.432-52.87 51.313v-40.194c22.544-18.698 42.16-42.245 42.16-80.733 0-42.77-20.849-58.438-49.704-80.122-19.144-14.167-29.026-34.16-26.956-58.162 7.688 6.891 17.042 13.841 26.693 21.01 9.279 6.873 18.55 13.772 27.408 21.187 4.233 3.544 10.542 2.985 14.087-1.249 3.545-4.235 2.985-10.542-1.249-14.087-10.315-8.635-21.171-16.575-31.953-24.608v-48.886c0-5.522-4.477-10-10-10s-10 4.478-10 10v33.182c-5.506-4.773-9.947-9.303-12.373-13.331-4.296-7.128-15.321-5.96-18.024 1.913-.465 1.355-11.26 33.53.746 62.557 1.308 3.167 2.834 6.247 4.548 9.229-22.608-3.145-45.975 1.471-58.853 22.928-7.932 13.217-8.444 30.337-1.305 43.615 7.376 13.718 22.733 22.7 38.355 21.892 5.515-.29 9.751-4.996 9.461-10.512-.29-5.515-4.982-9.729-10.512-9.461-7.914.424-15.8-4.334-19.588-11.207-4.037-7.324-3.53-16.927.737-24.036 12.639-21.057 45.32-14.963 66.322-5.16v134.428c-17.228 13.25-35.37 25.355-51.539 39.942l-22.699-13.836c9.693-22.325 3.665-43.073-16.833-55.568-21.792-13.283-71.4-21.95-87.063 3.746-6.995 11.474-5.327 27.458 4.694 45.007 7.926 13.88 20.138 26.944 31.869 34.096 19.891 12.124 42.25 7.478 56.883-10.228l18.696 11.396c-15.739 18.11-27.544 40.997-27.544 72.473 0 26.974 7.585 47.183 15.929 62.597-37.155 13.597-62.79 30.493-71.076 36.338h-23.623c-5.523 0-10 4.478-10 10s4.477 10 10 10h396.616c5.522 0 10-4.478 10-10s-4.478-10-10-10h-23.622c-14.664-10.344-83.656-55.31-174.685-55.31-2.013 0-4.011.03-6.002.073v-95.977c.016-.012.032-.024.048-.036 3.628-2.676 7.38-5.443 11.318-8.428 10.339-7.831 21.834-16.543 32.837-27.002 13.279-6.427 27.714-10.383 41.837-11.437 16.339-1.228 32.641 3.455 42.566 12.2 5.644 4.972 9.032 12.282 9.066 19.556.064 13.543-12.585 24.772-26.085 20.581-3.335-1.036-9.204-3.903-11.036-11.477-1.299-5.368-6.7-8.667-12.071-7.368-5.368 1.299-8.667 6.703-7.368 12.071 2.99 12.358 12.166 22.03 24.546 25.874 26.233 8.143 52.139-12.934 52.015-39.773-.061-13.089-5.836-25.653-15.846-34.472-14.032-12.36-35.439-18.758-57.276-17.138-5.154.385-10.339 1.101-15.504 2.122 8.706-13.225 15.738-28.69 19.672-47.144zm5.145-39.859c.78-6.374 4.552-11.54 11.53-15.793 11.849-7.223 49.725-19.085 59.576-2.923 6.38 10.466-10.664 39.892-29.896 51.614-10.189 6.212-20.701 4.948-29.047-3.665l24.019-14.746c4.706-2.89 6.18-9.048 3.29-13.755-2.89-4.704-9.046-6.178-13.755-3.29l-24.062 14.773c-1.539-4.358-2.112-8.489-1.655-12.215zm-112.218 30.731c0 23.372-9.029 39.828-22.16 53.598v-102.37c14.754 12.848 22.16 24.894 22.16 48.772zm-173.32 107.429c-19.233-11.723-36.276-41.149-29.896-51.616 2.862-4.694 11.273-6.948 21.416-6.948 12.469 0 27.555 3.406 38.161 9.871 7.858 4.79 15.159 13.351 9.949 27.948l-24.163-14.729c-4.713-2.871-10.868-1.381-13.743 3.334-2.875 4.716-1.382 10.869 3.334 13.744l24.095 14.687c-10.512 11.02-21.357 8.462-29.153 3.709zm57.625 90.719c0-48.418 38.015-76.068 73.536-102.081v39.745c-21.737 16.365-38.13 31.526-40.502 61.545-1.519 19.123 3.245 35.375 14.507 49.235-11.355 2.089-22.148 4.745-32.288 7.755-8.063-14.018-15.253-31.661-15.253-56.199zm235.354 98.935h-271.712c29.346-15.468 78.231-35.31 135.896-35.31 57.486 0 106.412 19.843 135.816 35.31zm-161.818-54.09c-.406.038-.815.071-1.219.11-14.808-12.082-20.805-25.78-19.345-44.167 1.323-16.746 8.503-27.065 20.564-37.564z"/><path d="m292.34 127.54c3.462 8.439 15.854 7.867 18.716-.688 1.35-4.035-.115-8.633-3.531-11.166-3.42-2.536-8.227-2.582-11.708-.143-3.781 2.649-5.251 7.737-3.477 11.997z"/></g></g></svg>