<?xml version="1.0" encoding="utf-8"?>
<!-- Generator: Adobe Illustrator 25.2.1, SVG Export Plug-In . SVG Version: 6.00 Build 0)  -->
<svg version="1.1" id="圖層_1" xmlns="http://www.w3.org/2000/svg" xmlns:xlink="http://www.w3.org/1999/xlink" x="0px" y="0px"
	 viewBox="0 0 451 141" style="enable-background:new 0 0 451 141;" xml:space="preserve">
<style type="text/css">
	.st0{fill:#C5B8A5;}
	.st1{fill:#FFFFFF;}
</style>
<path class="st0" d="M378,5c-20.2,0-38.4,8.8-50.7,22.7C315,13.8,296.9,5,276.7,5c-20.2,0-38.4,8.8-50.7,22.7
	C213.7,13.8,195.6,5,175.3,5s-38.4,8.8-50.7,22.7C112.4,13.8,94.2,5,74,5C37,5,7,34.3,7,70.5S37,136,74,136
	c20.2,0,38.4-8.8,50.7-22.7c12.3,13.9,30.4,22.7,50.7,22.7s38.4-8.8,50.7-22.7c12.3,13.9,30.4,22.7,50.7,22.7s38.4-8.8,50.7-22.7
	c12.3,13.9,30.4,22.7,50.7,22.7c37,0,67-29.3,67-65.5S415,5,378,5z"/>
<path class="st1" d="M113.6,88.7H73.3c-5.9,13.8-20.2,22.5-43,26.2l-4.4-8.8c20-3.5,32.3-9.3,37-17.4H28.4v-7.5h37.1
	c0.5-2.2,0.7-4.4,0.7-6.8h9.2c-0.1,2.7-0.2,5-0.4,6.8h38.5L113.6,88.7L113.6,88.7z M115.6,71.4H26.2v-7.4h40v-6.6H34.9v-7.3h31.3
	v-6.3H30.4v-7.4h80.7v7.4H75.5v6.3h31.2v7.3H75.5v6.6h40.1L115.6,71.4L115.6,71.4z M62.2,32.8l-9.6,2.6c-2.2-3.2-4.8-6.2-7.5-9
	l9.1-3C57.2,26.3,59.8,29.4,62.2,32.8z M116.8,107.8l-5.7,7.2c-10.8-6.4-23.6-11.7-38.4-15.7l5.6-7.6
	C94.5,96.6,107.3,102,116.8,107.8z M97.9,25.5c-1.9,3-4.3,6.2-7.1,9.5l-10.1-2.5c3.2-3.4,5.8-6.4,7.6-9.1L97.9,25.5z M216.6,88.7
	h-40.3c-5.9,13.8-20.2,22.5-42.9,26.2l-4.4-8.8c20-3.5,32.3-9.3,37-17.4h-34.5v-7.5h37.1c0.5-2.2,0.7-4.4,0.7-6.8h9.2
	c-0.1,2.7-0.2,5-0.4,6.8h38.5L216.6,88.7L216.6,88.7z M218.6,71.4h-89.4v-7.4h40v-6.6h-31.3v-7.3h31.3v-6.3h-35.8v-7.4h80.7v7.4
	h-35.6v6.3h31.2v7.3h-31.2v6.6h40.1L218.6,71.4L218.6,71.4z M165.2,32.8l-9.6,2.6c-2.2-3.2-4.8-6.2-7.5-9l9.1-3
	C160.2,26.3,162.8,29.4,165.2,32.8z M219.8,107.8l-5.7,7.2c-10.8-6.4-23.6-11.7-38.4-15.7l5.6-7.6C197.5,96.6,210.3,102,219.8,107.8
	z M200.9,25.5c-1.9,3-4.3,6.2-7.1,9.5l-10.1-2.5c3.2-3.4,5.8-6.4,7.6-9.1L200.9,25.5z M317.8,113.9h-9v-3.8h-64.2v3.8h-9.1V25.6
	h82.3L317.8,113.9L317.8,113.9z M308.9,102.3V33.7h-64.2v68.6H308.9z M300.5,78.4h-24.7c-1.5,1.7-3.1,3.2-5,4.6v8.4
	c2.5-0.5,5.5-1.5,9-2.8l0.7,7.1c-7.5,2.6-13.5,4.2-17.9,5l-2.1-6.3c1.2-0.8,1.8-2,1.8-3.4v-2.3c-4.8,2.4-8.8,4.3-12.2,5.4l-3.5-6.8
	c8.7-3,14.9-6.1,18.7-9.2H253V61.1h47.5L300.5,78.4L300.5,78.4z M305.5,57.2h-57.9v-6.5h24.6v-4.6h-21.5v-6.3h21.5v-3.6h8.9v3.6
	h21.4v6.3H281v4.6h24.4V57.2z M291.4,72.1v-4.8H262v4.8H291.4z M306.3,94.8l-5.3,5.6c-7.2-5.3-15.4-10.3-24.7-15l5.2-5.1
	c2.5,0.9,5.6,2.5,9.2,4.7c2.1-1.7,4.2-3.7,6.4-5.8l7.2,3.8c-2.2,2.1-4.4,4-6.7,5.8C300.6,90.8,303.5,92.8,306.3,94.8z M382.8,57.7
	h-8.9v1.5c0,0.9,0.5,1.4,1.6,1.4h6.9v4.8h-10.7c-3.9,0-5.8-2-5.8-5.9v-1.8h-10.5c-1.4,3.7-4.3,6.9-8.5,9.7h9.7v-2.9h9v2.9h13.6v5
	h-13.6v3.3c4.1-0.2,9.1-0.6,15.1-1.4l0.4,5c-14.8,1.7-29.6,2.8-44.3,3.2v-5.5c7.4-0.1,14-0.3,19.8-0.7v-4h-12.4v-3.6
	c-2.5,1.1-4.6,1.8-6.4,2.1l-3.9-6.1c6.1-1,10.6-3.4,13.3-7.1H336v-5.4h20.5v-3.1h-16.1V44h16.1v-2.7h8.9V44h14.9v5.1h-14.9v3.1h17.5
	L382.8,57.7L382.8,57.7z M377.2,35.7h-12v3.6h-9v-3.6h-21.6v-6.9h21.6v-4.5h9v4.5h12L377.2,35.7L377.2,35.7z M424.7,100.1h-17.9
	c5.6,3.1,10.4,6.5,14.4,10.2l-7.7,4.5c-2.2-1.9-4.1-3.5-5.7-4.6c-20.9,2.2-43.3,3.2-67.2,3.1l-1.2-5.9c6.4-1.5,12.4-3.9,18.2-7.3
	H335v-6.3h89.7L424.7,100.1L424.7,100.1z M414,90.1h-68.4v-5.8H414V90.1z M401.6,100.1h-31.4c-4.1,3.2-7.8,5.4-10.9,6.9
	c14.6-0.3,27.9-1.1,39.9-2.2c-0.9-0.7-2.1-1.3-3.4-1.9L401.6,100.1z M424.4,35.7h-21.6v3.4h-8.9v-3.4h-12v-6.9h12v-4.5h8.9v4.5h21.6
	L424.4,35.7L424.4,35.7z M425.6,67.8c-0.4,6.6-1.4,10.9-2.7,12.8c-1.4,1.9-3.1,2.9-5.1,2.9c-2.9,0-5.2-2.1-6.8-6.2
	c-1.6-4.1-2.5-11.8-2.7-23.1h-5.7c-0.1,4.4-0.7,8.3-1.7,11.5c2.3,2,4.4,4,6.2,6l-4.3,7c-2-2.2-3.8-4-5.5-5.3c-2.7,4.1-5.7,7.2-9,9.5
	l-5.7-6.8c4-2.8,6.7-5.6,8-8.2c-2.1-1.6-4.2-2.9-6.1-3.8l4.4-6.3c1.4,0.7,2.9,1.6,4.6,2.7c0.6-2,0.9-4.1,0.9-6.2h-8.5v-7.5h8.4v-5.3
	h8.2v5.3h13.9c-0.2,7.9,0,14.5,0.6,19.9s1.1,8,1.6,8c0.2,0,0.5-0.8,0.8-2.2s0.5-4,0.5-7.6L425.6,67.8z"/>
</svg>
